<svg width="171" height="145" viewBox="0 0 171 145" fill="none" xmlns="http://www.w3.org/2000/svg">
<path fill-rule="evenodd" clip-rule="evenodd" d="M147.215 144.674C161.947 129.313 171 108.464 171 85.5C171 38.2797 132.72 0 85.5 0C38.2971 0 0.0282866 38.2514 1.56739e-05 85.4477C5.22511e-06 85.4651 0 85.4826 0 85.5M147.215 144.674C152.781 138.869 157.52 132.286 161.272 125.108C167.662 112.884 171 99.2942 171 85.5H85.5L20.7566 29.6561C11.747 40.1015 5.39844 52.5717 2.2528 66.0025C0.754469 72.3998 0.00400458 78.9245 1.56739e-05 85.4477" fill="url(#paint0_angular_504_9376)"/>
<path fill-rule="evenodd" clip-rule="evenodd" d="M147.215 144.674C161.947 129.313 171 108.464 171 85.5C171 38.2797 132.72 0 85.5 0C38.2971 0 0.0282866 38.2514 1.56739e-05 85.4477C5.22511e-06 85.4651 0 85.4826 0 85.5M147.215 144.674C152.781 138.869 157.52 132.286 161.272 125.108C167.662 112.884 171 99.2942 171 85.5H85.5L20.7566 29.6561C11.747 40.1015 5.39844 52.5717 2.2528 66.0025C0.754469 72.3998 0.00400458 78.9245 1.56739e-05 85.4477" fill="black" fill-opacity="0.2"/>
<defs>
<radialGradient id="paint0_angular_504_9376" cx="0" cy="0" r="1" gradientUnits="userSpaceOnUse" gradientTransform="translate(85.5 85.4996) rotate(90) scale(85.4996 85.5)">
<stop offset="0.213542" stop-color="#F79410"/>
<stop offset="0.645833" stop-color="#50AF05"/>
</radialGradient>
</defs>
</svg>
