<svg width="339" height="360" viewBox="0 0 339 360" fill="none" xmlns="http://www.w3.org/2000/svg">
<g filter="url(#filter0_bd_504_9357)">
<path d="M255 101.006C296.513 101.542 330 135.36 330 177C330 218.64 296.513 252.458 255 252.994V325C255 338.807 243.807 350 230 350H34C20.1929 350 9 338.807 9 325V32C9 18.1929 20.1929 7 34 7L230 7C243.807 7 255 18.1929 255 32V101.006Z" fill="white" fill-opacity="0.1"/>
<path d="M255 101.006C296.513 101.542 330 135.36 330 177C330 218.64 296.513 252.458 255 252.994V325C255 338.807 243.807 350 230 350H34C20.1929 350 9 338.807 9 325V32C9 18.1929 20.1929 7 34 7L230 7C243.807 7 255 18.1929 255 32V101.006Z" fill="url(#paint0_linear_504_9357)" fill-opacity="0.2"/>
<path d="M254.594 101.006V101.408L254.995 101.413C296.285 101.945 329.594 135.583 329.594 177C329.594 218.417 296.285 252.055 254.995 252.587L254.594 252.592V252.994V325C254.594 338.583 243.583 349.594 230 349.594H34C20.4173 349.594 9.4064 338.583 9.4064 325V32C9.4064 18.4173 20.4173 7.40641 34 7.40641L230 7.40641C243.583 7.40641 254.594 18.4173 254.594 32V101.006Z" stroke="white" stroke-opacity="0.4" stroke-width="0.812813"/>
</g>
<defs>
<filter id="filter0_bd_504_9357" x="0.871872" y="0" width="337.256" height="359.754" filterUnits="userSpaceOnUse" color-interpolation-filters="sRGB">
<feFlood flood-opacity="0" result="BackgroundImageFix"/>
<feGaussianBlur in="BackgroundImageFix" stdDeviation="3.5"/>
<feComposite in2="SourceAlpha" operator="in" result="effect1_backgroundBlur_504_9357"/>
<feColorMatrix in="SourceAlpha" type="matrix" values="0 0 0 0 0 0 0 0 0 0 0 0 0 0 0 0 0 0 127 0" result="hardAlpha"/>
<feOffset dy="1.62563"/>
<feGaussianBlur stdDeviation="4.06406"/>
<feColorMatrix type="matrix" values="0 0 0 0 0.161823 0 0 0 0 0.545468 0 0 0 0 0.995833 0 0 0 0.05 0"/>
<feBlend mode="normal" in2="effect1_backgroundBlur_504_9357" result="effect2_dropShadow_504_9357"/>
<feBlend mode="normal" in="SourceGraphic" in2="effect2_dropShadow_504_9357" result="shape"/>
</filter>
<linearGradient id="paint0_linear_504_9357" x1="278.878" y1="202.258" x2="8.52032" y2="187" gradientUnits="userSpaceOnUse">
<stop stop-color="white" stop-opacity="0.5"/>
<stop offset="1" stop-opacity="0"/>
</linearGradient>
</defs>
</svg>
