<svg width="350" height="266" viewBox="0 0 350 266" fill="none" xmlns="http://www.w3.org/2000/svg">
<g filter="url(#filter0_f_508_9387)">
<ellipse cx="175.241" cy="217.054" rx="67.7586" ry="28.5779" fill="black"/>
</g>
<g filter="url(#filter1_f_508_9387)">
<path d="M329.897 67.0198C329.897 67.0198 260.655 113.734 175.241 113.734C89.8277 113.734 20.5862 67.0198 20.5862 67.0198C20.5862 41.2205 89.8277 20.3059 175.241 20.3059C260.655 20.3059 329.897 41.2205 329.897 67.0198Z" fill="url(#paint0_linear_508_9387)" fill-opacity="0.4"/>
</g>
<g filter="url(#filter2_f_508_9387)">
<path d="M262.655 87.9037C262.655 103.383 223.519 115.932 175.241 115.932C126.964 115.932 87.8276 103.383 87.8276 87.9037C87.8276 72.4241 126.964 73.0652 175.241 73.0652C223.519 73.0652 262.655 72.4241 262.655 87.9037Z" fill="white" fill-opacity="0.3"/>
</g>
<path d="M128.172 231.343C124.862 231.782 123.345 233.724 123 234.64H113.172C110.414 231.526 104.897 222.22 104.897 209.909C104.897 194.521 104.897 185.178 106.966 181.881C109.035 178.584 115.241 155.501 116.276 143.96C117.31 132.419 119.379 107.688 121.966 102.742C124.552 97.796 127.655 93.3994 132.31 91.7507C136.966 90.102 140.069 90.102 142.138 90.102C143.793 90.102 145.931 91.9339 146.793 92.8499C152.483 92.4835 166.862 91.7507 174.724 91.7507H175.241C183.104 91.7507 197.483 92.4835 203.172 92.8499C204.035 91.9339 206.172 90.102 207.828 90.102C209.897 90.102 213 90.102 217.655 91.7507C222.31 93.3994 225.414 97.796 228 102.742C230.586 107.688 232.655 132.419 233.69 143.96C234.724 155.501 240.931 178.584 243 181.881C245.069 185.178 245.069 194.521 245.069 209.909C245.069 222.22 239.552 231.526 236.793 234.64H226.966C226.621 233.724 225.104 231.782 221.793 231.343C217.655 230.793 182.483 230.244 175.241 230.244H174.724C167.483 230.244 132.31 230.793 128.172 231.343Z" fill="#F7F7F7"/>
<path fill-rule="evenodd" clip-rule="evenodd" d="M111.71 167.173C116.358 166.152 122.849 163.302 124.552 157.15C125.227 154.711 125.761 151.71 126.329 148.518C127.937 139.486 129.816 128.93 135.931 125.275H212.483C218.598 128.93 220.477 139.486 222.085 148.518C222.653 151.71 223.187 154.711 223.862 157.15C225.776 164.064 233.738 166.808 238.333 167.471C236.256 159.513 234.24 150.102 233.69 143.96C233.63 143.298 233.568 142.592 233.501 141.849C232.416 129.645 230.438 107.404 228 102.742C225.414 97.796 222.31 93.3994 217.655 91.7507C213 90.102 209.897 90.102 207.828 90.102C206.173 90.102 204.035 91.9339 203.173 92.8499C197.483 92.4835 183.104 91.7507 175.242 91.7507H174.724C166.862 91.7507 152.483 92.4835 146.793 92.8499C145.931 91.9339 143.793 90.102 142.138 90.102C140.069 90.102 136.966 90.102 132.31 91.7507C127.655 93.3994 124.552 97.796 121.966 102.742C119.528 107.404 117.55 129.645 116.464 141.848C116.398 142.592 116.335 143.298 116.276 143.96C115.732 150.026 113.76 159.279 111.71 167.173Z" fill="white"/>
<path d="M130.491 99.9943C130.491 99.8918 130.429 99.7997 130.334 99.7619C130.238 99.7241 130.13 99.7483 130.059 99.823C128.734 101.231 127.556 103.395 126.534 105.982C125.509 108.574 124.633 111.61 123.92 114.778C122.494 121.113 121.716 128.002 121.716 132.969C121.716 137.939 122.495 141.41 123.482 143.649C123.976 144.768 124.525 145.586 125.061 146.128C125.59 146.664 126.136 146.958 126.621 146.958C127.081 146.958 127.553 146.756 127.991 146.427C128.431 146.097 128.855 145.627 129.223 145.058C129.959 143.92 130.491 142.362 130.491 140.663V99.9943Z" fill="#252525" stroke="#A3A3A3" stroke-width="0.5" stroke-linejoin="round"/>
<path d="M133.345 151.105V98.8952C136.793 97.2465 148.035 93.949 165.414 93.949H181.966C199.345 93.949 210.586 97.2465 214.035 98.8952V151.105C214.035 159.348 207.31 166.493 187.138 166.493H160.241C140.069 166.493 133.345 159.348 133.345 151.105Z" fill="#545454"/>
<path d="M133.345 151.105V98.8952C136.793 97.2465 148.035 93.949 165.414 93.949H181.966C199.345 93.949 210.586 97.2465 214.035 98.8952V151.105C214.035 159.348 207.31 166.493 187.138 166.493H160.241C140.069 166.493 133.345 159.348 133.345 151.105Z" fill="url(#paint1_radial_508_9387)"/>
<g filter="url(#filter3_f_508_9387)">
<rect x="143.69" y="95.0482" width="60" height="14.289" fill="url(#paint2_radial_508_9387)" fill-opacity="0.3"/>
</g>
<path d="M217.405 99.9943C217.405 99.8918 217.468 99.7997 217.563 99.7619C217.658 99.7241 217.767 99.7483 217.837 99.823C219.162 101.231 220.34 103.395 221.363 105.982C222.387 108.574 223.264 111.61 223.977 114.778C225.403 121.113 226.181 128.002 226.181 132.969C226.181 137.939 225.402 141.41 224.414 143.649C223.92 144.768 223.372 145.586 222.836 146.128C222.306 146.664 221.761 146.958 221.276 146.958C220.816 146.958 220.344 146.756 219.905 146.427C219.465 146.097 219.042 145.627 218.674 145.058C217.938 143.92 217.405 142.362 217.405 140.663V99.9943Z" fill="#252525" stroke="#A3A3A3" stroke-width="0.5" stroke-linejoin="round"/>
<path d="M134.897 120.329C138.862 118.13 152.069 113.734 173.172 113.734C194.276 113.734 207.828 118.13 211.966 120.329" stroke="black" stroke-opacity="0.4" stroke-linecap="round" stroke-linejoin="round"/>
<path fill-rule="evenodd" clip-rule="evenodd" d="M133.345 147.807V151.105C133.345 159.348 140.069 166.493 160.241 166.493H187.138C207.31 166.493 214.035 159.348 214.035 151.105V147.807C214.035 156.051 207.31 163.195 187.138 163.195H160.241C140.069 163.195 133.345 156.051 133.345 147.807Z" fill="#F2F2F2" fill-opacity="0.1"/>
<rect x="159.724" y="162.096" width="26.8966" height="2.1983" fill="#D0021B" fill-opacity="0.4"/>
<path d="M135.931 180.782C139.807 180.782 142.458 185.298 143.692 188.562C143.957 189.264 143.329 189.947 142.59 189.822C140.41 189.456 137.035 189.026 133.862 189.026C128.69 189.026 123 191.773 120.414 191.773C117.828 191.773 111.621 191.773 111.621 186.278C111.621 182.606 112.823 179.445 113.722 177.756C113.973 177.284 114.566 177.152 115.04 177.399C116.644 178.234 119.587 179.507 123 180.232C128.172 181.331 130.241 180.782 135.931 180.782Z" fill="#6D0000"/>
<g filter="url(#filter4_f_508_9387)">
<path d="M140.586 187.926C140.241 186.278 138.828 182.87 135.931 182.43C132.31 181.881 126.103 182.98 123 181.881C119.897 180.782 117.31 180.232 114.724 181.331C112.138 182.43 112.655 188.842 116.793 189.575C120.931 190.308 122.655 189.209 124.552 189.025M124.034 186.827C124.207 186.644 124.138 186.168 122.483 185.728C120.414 185.178 119.379 186.278 118.345 185.728C117.517 185.288 118 184.446 118.345 184.079" stroke="#FB4E4E" stroke-linecap="round" stroke-linejoin="round"/>
</g>
<path d="M211.966 180.782C208.09 180.782 205.439 185.298 204.205 188.562C203.94 189.264 204.567 189.947 205.307 189.822C207.486 189.456 210.862 189.026 214.034 189.026C219.207 189.026 224.897 191.773 227.483 191.773C230.069 191.773 236.276 191.773 236.276 186.278C236.276 182.606 235.073 179.445 234.175 177.756C233.924 177.284 233.331 177.152 232.857 177.399C231.253 178.234 228.309 179.507 224.897 180.232C219.724 181.331 217.655 180.782 211.966 180.782Z" fill="#6D0000"/>
<g filter="url(#filter5_f_508_9387)">
<path d="M207.31 187.926C207.655 186.278 209.069 182.87 211.965 182.43C215.586 181.881 221.793 182.98 224.897 181.881C228 180.782 230.586 180.232 233.172 181.331C235.759 182.43 235.241 188.842 231.103 189.575C226.965 190.308 225.241 189.209 223.345 189.025M223.862 186.827C223.69 186.644 223.759 186.168 225.414 185.728C227.483 185.178 228.517 186.278 229.552 185.728C230.379 185.288 229.897 184.446 229.552 184.079" stroke="#FB4E4E" stroke-linecap="round" stroke-linejoin="round"/>
</g>
<path d="M127.138 180.782C127.31 189.026 129.517 205.513 136.966 205.513H210.931C218.379 205.513 220.586 189.026 220.759 180.782" stroke="black" stroke-opacity="0.4"/>
<g filter="url(#filter6_f_508_9387)">
<path d="M175.187 191.773C128.026 191.773 120.062 164.87 121.974 151.418L120.931 115.546L155.363 95.0482L222.139 104.016L230.486 151.418C231.703 164.87 222.347 191.773 175.187 191.773Z" fill="black" fill-opacity="0.1"/>
</g>
<rect x="162.81" y="192.273" width="23.8276" height="11.0907" rx="0.5" fill="#E9E9E9" stroke="#CCCCCC"/>
<path d="M174.724 175.286C159 175.286 145.069 176.752 140.069 177.484H209.897C204.724 176.752 190.448 175.286 174.724 175.286Z" fill="black" fill-opacity="0.1"/>
<path d="M174.724 192.873C159 192.873 145.069 191.407 140.069 190.674H209.897C204.724 191.407 190.448 192.873 174.724 192.873Z" fill="#C9C9C9"/>
<path d="M138.517 223.649L134.897 227.496C132.828 226.617 121.276 227.129 115.759 227.496C115.759 227.496 118.241 226.067 124.035 224.748C129.828 223.429 136.103 223.466 138.517 223.649Z" fill="#510000"/>
<path d="M209.897 223.649L213.517 227.496C215.586 226.617 227.138 227.129 232.655 227.496C232.655 227.496 230.172 226.067 224.379 224.748C218.586 223.429 212.31 223.466 209.897 223.649Z" fill="#510000"/>
<path d="M120.931 179.133H225.414" stroke="white"/>
<path d="M117.828 113.734H120.414V117.031H117.828C117.828 119.229 115.241 120.878 111.103 120.878C106.448 120.878 103.345 120.329 103.345 117.031C103.345 112.085 111.621 109.337 114.724 109.337C117.207 109.337 117.828 112.268 117.828 113.734Z" fill="white"/>
<path fill-rule="evenodd" clip-rule="evenodd" d="M115.159 120.198C114.081 120.63 112.709 120.878 111.104 120.878C107.355 120.878 104.613 120.522 103.687 118.661C105.151 116.095 110.923 113.184 113.172 113.184C115.759 113.184 116.276 115.382 116.276 117.031C116.276 118.037 115.674 119.32 115.159 120.198Z" fill="#A8A5A5"/>
<path d="M232.138 113.734H229.552V117.031H232.138C232.138 119.229 234.724 120.878 238.862 120.878C243.517 120.878 246.621 120.329 246.621 117.031C246.621 112.085 238.345 109.337 235.241 109.337C232.759 109.337 232.138 112.268 232.138 113.734Z" fill="white"/>
<path fill-rule="evenodd" clip-rule="evenodd" d="M234.807 120.198C235.884 120.63 237.256 120.878 238.862 120.878C242.611 120.878 245.353 120.522 246.279 118.661C244.815 116.095 239.043 113.184 236.793 113.184C234.207 113.184 233.69 115.382 233.69 117.031C233.69 118.037 234.291 119.32 234.807 120.198Z" fill="#A8A5A5"/>
<g filter="url(#filter7_f_508_9387)">
<rect x="121.966" y="201.666" width="103.448" height="15.3881" rx="7.69405" fill="black" fill-opacity="0.1"/>
</g>
<defs>
<filter id="filter0_f_508_9387" x="87.4828" y="168.476" width="175.517" height="97.1558" filterUnits="userSpaceOnUse" color-interpolation-filters="sRGB">
<feFlood flood-opacity="0" result="BackgroundImageFix"/>
<feBlend mode="normal" in="SourceGraphic" in2="BackgroundImageFix" result="shape"/>
<feGaussianBlur stdDeviation="10" result="effect1_foregroundBlur_508_9387"/>
</filter>
<filter id="filter1_f_508_9387" x="0.586182" y="0.305939" width="349.31" height="133.428" filterUnits="userSpaceOnUse" color-interpolation-filters="sRGB">
<feFlood flood-opacity="0" result="BackgroundImageFix"/>
<feBlend mode="normal" in="SourceGraphic" in2="BackgroundImageFix" result="shape"/>
<feGaussianBlur stdDeviation="10" result="effect1_foregroundBlur_508_9387"/>
</filter>
<filter id="filter2_f_508_9387" x="67.8276" y="53.0614" width="214.828" height="82.8706" filterUnits="userSpaceOnUse" color-interpolation-filters="sRGB">
<feFlood flood-opacity="0" result="BackgroundImageFix"/>
<feBlend mode="normal" in="SourceGraphic" in2="BackgroundImageFix" result="shape"/>
<feGaussianBlur stdDeviation="10" result="effect1_foregroundBlur_508_9387"/>
</filter>
<filter id="filter3_f_508_9387" x="141.69" y="93.0482" width="64" height="18.289" filterUnits="userSpaceOnUse" color-interpolation-filters="sRGB">
<feFlood flood-opacity="0" result="BackgroundImageFix"/>
<feBlend mode="normal" in="SourceGraphic" in2="BackgroundImageFix" result="shape"/>
<feGaussianBlur stdDeviation="1" result="effect1_foregroundBlur_508_9387"/>
</filter>
<filter id="filter4_f_508_9387" x="111.643" y="179.232" width="30.443" height="12.0883" filterUnits="userSpaceOnUse" color-interpolation-filters="sRGB">
<feFlood flood-opacity="0" result="BackgroundImageFix"/>
<feBlend mode="normal" in="SourceGraphic" in2="BackgroundImageFix" result="shape"/>
<feGaussianBlur stdDeviation="0.5" result="effect1_foregroundBlur_508_9387"/>
</filter>
<filter id="filter5_f_508_9387" x="205.81" y="179.232" width="30.443" height="12.0883" filterUnits="userSpaceOnUse" color-interpolation-filters="sRGB">
<feFlood flood-opacity="0" result="BackgroundImageFix"/>
<feBlend mode="normal" in="SourceGraphic" in2="BackgroundImageFix" result="shape"/>
<feGaussianBlur stdDeviation="0.5" result="effect1_foregroundBlur_508_9387"/>
</filter>
<filter id="filter6_f_508_9387" x="116.931" y="91.0482" width="117.655" height="104.725" filterUnits="userSpaceOnUse" color-interpolation-filters="sRGB">
<feFlood flood-opacity="0" result="BackgroundImageFix"/>
<feBlend mode="normal" in="SourceGraphic" in2="BackgroundImageFix" result="shape"/>
<feGaussianBlur stdDeviation="2" result="effect1_foregroundBlur_508_9387"/>
</filter>
<filter id="filter7_f_508_9387" x="117.966" y="197.666" width="111.448" height="23.3881" filterUnits="userSpaceOnUse" color-interpolation-filters="sRGB">
<feFlood flood-opacity="0" result="BackgroundImageFix"/>
<feBlend mode="normal" in="SourceGraphic" in2="BackgroundImageFix" result="shape"/>
<feGaussianBlur stdDeviation="2" result="effect1_foregroundBlur_508_9387"/>
</filter>
<linearGradient id="paint0_linear_508_9387" x1="174.679" y1="32.8828" x2="175.317" y2="113.733" gradientUnits="userSpaceOnUse">
<stop offset="0.00552486" stop-color="white" stop-opacity="0.2"/>
<stop offset="1" stop-color="white"/>
</linearGradient>
<radialGradient id="paint1_radial_508_9387" cx="0" cy="0" r="1" gradientUnits="userSpaceOnUse" gradientTransform="translate(173.172 125.824) rotate(90) scale(53.3088 144.014)">
<stop stop-opacity="0"/>
<stop offset="1"/>
</radialGradient>
<radialGradient id="paint2_radial_508_9387" cx="0" cy="0" r="1" gradientUnits="userSpaceOnUse" gradientTransform="translate(173.69 102.788) rotate(90) scale(6.54911 35.9286)">
<stop stop-color="white"/>
<stop offset="0.98895" stop-color="white" stop-opacity="0"/>
</radialGradient>
</defs>
</svg>
